<?xml version="1.0" standalone="no"?>
<!DOCTYPE svg PUBLIC "-//W3C//DTD SVG 20010904//EN"
 "http://www.w3.org/TR/2001/REC-SVG-20010904/DTD/svg10.dtd">
<svg version="1.0" xmlns="http://www.w3.org/2000/svg"
 width="555.000000pt" height="555.000000pt" viewBox="0 0 555.000000 555.000000"
 preserveAspectRatio="xMidYMid meet">
<metadata>
Created by potrace 1.14, written by Peter Selinger 2001-2017
</metadata>
<g transform="translate(0.000000,555.000000) scale(0.100000,-0.100000)"
fill="#000000" stroke="none">
<path d="M0 2775 l0 -2775 2775 0 2775 0 0 2775 0 2775 -2775 0 -2775 0 0
-2775z m2466 2010 c122 -61 160 -146 110 -248 -45 -92 -35 -90 -236 -55 -96
16 -177 32 -180 35 -3 3 -5 35 -4 72 1 109 50 176 149 207 61 19 106 16 161
-11z m-367 -236 c-11 -46 -22 -92 -25 -101 -4 -15 4 -17 61 -20 l66 -3 -219
-177 c-121 -98 -225 -179 -231 -180 -12 -3 -143 202 -138 216 3 10 500 356
504 352 1 -1 -7 -40 -18 -87z m329 -141 c17 -19 31 -80 76 -326 31 -167 56
-305 56 -307 0 -3 -19 5 -42 18 -56 29 -157 28 -242 -2 -33 -12 -63 -21 -68
-21 -4 0 -8 121 -8 269 l0 269 25 30 c38 46 114 92 150 92 20 0 39 -8 53 -22z
m-1146 -228 c-332 -222 -502 -638 -519 -1270 -12 -466 45 -733 238 -1120 196
-392 481 -734 834 -1004 l50 -39 -40 7 c-141 25 -402 139 -560 245 -168 113
-326 269 -431 427 -69 103 -168 335 -249 579 -112 339 -155 582 -156 880 0
220 17 337 74 507 66 195 154 344 291 486 101 106 198 184 304 246 77 45 226
116 245 116 5 0 -32 -27 -81 -60z m305 0 c46 -28 90 -93 102 -151 21 -95 17
-106 -66 -219 -155 -210 -291 -452 -343 -609 -47 -143 -51 -377 -9 -621 58
-345 218 -740 427 -1055 89 -134 191 -338 235 -472 36 -108 57 -223 42 -223
-28 0 -281 166 -375 245 -479 404 -757 965 -810 1633 -22 279 47 706 155 963
116 274 284 450 490 510 79 23 113 23 152 -1z m348 -102 c-25 -138 -32 -194
-28 -205 3 -7 2 -33 -1 -58 -13 -82 -82 -124 -180 -110 l-44 7 48 102 c45 96
47 105 37 143 -8 30 -7 48 2 70 17 41 87 80 149 82 20 1 22 -2 17 -31z m559
-309 c68 -19 119 -78 186 -216 222 -460 646 -807 1235 -1009 351 -121 689
-176 1200 -198 l280 -11 -105 -52 c-181 -89 -433 -163 -670 -198 -151 -22
-467 -30 -635 -16 -197 17 -492 65 -610 99 -583 170 -976 559 -1115 1102 -25
99 -48 260 -51 358 -2 74 -2 74 31 95 80 50 176 68 254 46z m-690 -126 c50
-15 92 -28 94 -29 2 -1 8 -67 13 -146 34 -506 160 -942 339 -1180 155 -206
681 -503 1167 -661 76 -25 176 -55 223 -67 47 -13 101 -34 120 -48 57 -42 243
-228 264 -263 l19 -32 -154 6 c-323 13 -759 101 -1024 207 -186 74 -407 206
-595 356 -118 95 -348 328 -453 459 -121 151 -230 315 -337 502 -103 181 -103
183 -74 382 51 351 147 541 273 541 19 0 75 -12 125 -27z m357 -105 c46 -498
325 -933 804 -1253 353 -236 700 -326 1205 -312 216 6 352 20 588 62 149 26
413 89 517 124 33 11 61 18 63 16 5 -5 -103 -89 -191 -148 -97 -65 -329 -178
-454 -221 -120 -41 -296 -79 -444 -96 -135 -16 -472 -8 -587 14 -698 131
-1152 419 -1382 876 -111 221 -160 437 -160 717 -1 138 16 330 28 318 3 -2 9
-46 13 -97z m-751 -755 c137 -418 530 -881 1020 -1203 325 -213 681 -326 1280
-405 307 -41 296 -36 140 -68 -204 -42 -355 -57 -558 -57 -269 0 -444 23 -686
91 -334 94 -555 217 -767 429 -277 276 -421 582 -460 974 -9 99 -6 306 6 306
2 0 13 -30 25 -67z"/>
</g>
</svg>
